<svg width="20" height="20" viewBox="0 0 20 20" fill="none" xmlns="http://www.w3.org/2000/svg">
<g id="&#208;&#161;&#209;&#130;&#209;&#128;&#208;&#181;&#208;&#187;&#208;&#186;&#208;&#176;">
<path id="Vector" d="M13.2749 9.54755L6.30862 2.91005C6.19239 2.79924 6.03796 2.73743 5.87737 2.73743C5.71679 2.73743 5.56236 2.79924 5.44613 2.91005L5.43862 2.91755C5.38208 2.97126 5.33706 3.03592 5.30629 3.10759C5.27552 3.17925 5.25966 3.25643 5.25966 3.33442C5.25966 3.41241 5.27552 3.48959 5.30629 3.56126C5.33706 3.63292 5.38208 3.69758 5.43862 3.7513L11.9986 10.0013L5.43862 16.2488C5.38208 16.3025 5.33706 16.3672 5.30629 16.4388C5.27552 16.5105 5.25966 16.5877 5.25966 16.6657C5.25966 16.7437 5.27552 16.8208 5.30629 16.8925C5.33706 16.9642 5.38208 17.0288 5.43862 17.0825L5.44613 17.09C5.56236 17.2009 5.71679 17.2627 5.87737 17.2627C6.03796 17.2627 6.19239 17.2009 6.30862 17.09L13.2749 10.4525C13.3361 10.3942 13.3849 10.324 13.4182 10.2462C13.4516 10.1684 13.4687 10.0847 13.4687 10C13.4687 9.91543 13.4516 9.83169 13.4182 9.7539C13.3849 9.67612 13.3361 9.60592 13.2749 9.54755Z" fill="#252727"/>
</g>
</svg>
