<svg width="20" height="20" viewBox="0 0 20 20" fill="none" xmlns="http://www.w3.org/2000/svg">
<g id="&#208;&#161;&#209;&#130;&#209;&#128;&#208;&#181;&#208;&#187;&#208;&#186;&#208;&#176;">
<path id="Vector" d="M9.54742 6.725L2.90992 13.6913C2.79912 13.8075 2.7373 13.9619 2.7373 14.1225C2.7373 14.2831 2.79912 14.4375 2.90992 14.5538L2.91742 14.5613C2.97114 14.6178 3.0358 14.6628 3.10746 14.6936C3.17913 14.7244 3.25631 14.7402 3.3343 14.7402C3.41229 14.7402 3.48947 14.7244 3.56113 14.6936C3.6328 14.6628 3.69746 14.6178 3.75117 14.5613L10.0012 8.00125L16.2487 14.5613C16.3024 14.6178 16.367 14.6628 16.4387 14.6936C16.5104 14.7244 16.5876 14.7402 16.6655 14.7402C16.7435 14.7402 16.8207 14.7244 16.8924 14.6936C16.964 14.6628 17.0287 14.6178 17.0824 14.5613L17.0899 14.5538C17.2007 14.4375 17.2625 14.2831 17.2625 14.1225C17.2625 13.9619 17.2007 13.8075 17.0899 13.6913L10.4524 6.725C10.3941 6.66374 10.3238 6.61496 10.2461 6.58164C10.1683 6.54831 10.0845 6.53113 9.99992 6.53113C9.9153 6.53113 9.83156 6.54831 9.75378 6.58164C9.676 6.61496 9.6058 6.66374 9.54742 6.725Z" fill="white"/>
</g>
</svg>
