<svg width="642" height="856" viewBox="0 0 642 856" fill="none" xmlns="http://www.w3.org/2000/svg">
<path d="M214 0H428V214H314C258.772 214 214 169.228 214 114V0Z" fill="#EAEBEF"/>
<rect y="214" width="214" height="214" rx="107" fill="#EAEBEF"/>
<path d="M214 314C214 258.772 258.772 214 314 214H428V428H314C258.772 428 214 383.228 214 328V314Z" fill="#2955F2"/>
<rect x="428" y="214" width="214" height="214" rx="107" fill="#EAEBEF"/>
<path d="M0 428H214V542C214 597.228 169.228 642 114 642H100C44.7715 642 0 597.228 0 542V428Z" fill="#2955F2"/>
<path d="M214 428H428V642H314C258.772 642 214 597.228 214 542V428Z" fill="#89B8FA"/>
<path d="M428 428H542C597.228 428 642 472.772 642 528V642H428V428Z" fill="#89B8FA"/>
<path d="M0 642H114C169.228 642 214 686.772 214 742V856H0V642Z" fill="#EAEBEF"/>
<rect x="214" y="642" width="214" height="214" rx="107" fill="#F2F3F7"/>
<path d="M428 742C428 686.772 472.772 642 528 642H642V756C642 811.228 597.228 856 542 856H428V742Z" fill="#EAEBEF"/>
<path d="M0 0H114C169.228 0 214 44.7715 214 100V214H0V0Z" fill="#89B8FA"/>
<path opacity="0.1" d="M428 100C428 44.7715 472.772 0 528 0H642V214H428V100Z" fill="#2955F2"/>
</svg>
