<svg width="20" height="20" viewBox="0 0 20 20" fill="none" xmlns="http://www.w3.org/2000/svg">
<g id="fluent:eye-12-filled">
<path id="Vector" d="M3.2899 11.0983C3.21529 11.302 3.06421 11.4686 2.86875 11.5626C2.67328 11.6567 2.44885 11.6708 2.24313 11.602C2.03742 11.5332 1.86663 11.387 1.76706 11.1942C1.66749 11.0015 1.64698 10.7776 1.7099 10.57C1.73954 10.4782 1.77403 10.3864 1.81323 10.2983C1.8799 10.14 1.97823 9.92167 2.11323 9.66333C2.38823 9.14667 2.81657 8.45833 3.44823 7.77C4.72323 6.37833 6.81157 5 9.9999 5C13.1882 5 15.2766 6.37833 16.5516 7.77C17.2321 8.51663 17.7841 9.37101 18.1849 10.2983L18.2616 10.4867C18.2666 10.5 18.2832 10.5867 18.2999 10.67L18.3332 10.8333C18.3332 10.8333 18.4732 11.3883 17.7632 11.6233C17.5541 11.6932 17.3259 11.6773 17.1285 11.5792C16.9311 11.4811 16.7806 11.3088 16.7099 11.1V11.095L16.6999 11.0683C16.6162 10.8542 16.5205 10.645 16.4132 10.4417C16.1169 9.88253 15.7506 9.36336 15.3232 8.89667C14.3066 7.78833 12.6449 6.66667 9.9999 6.66667C7.3549 6.66667 5.69323 7.78833 4.67657 8.89667C4.12613 9.50012 3.67851 10.1898 3.35157 10.9383C3.33408 10.9813 3.31741 11.0247 3.30157 11.0683L3.2899 11.0983ZM6.66657 11.6667C6.66657 10.7826 7.01776 9.93476 7.64288 9.30964C8.268 8.68452 9.11584 8.33333 9.9999 8.33333C10.884 8.33333 11.7318 8.68452 12.3569 9.30964C12.982 9.93476 13.3332 10.7826 13.3332 11.6667C13.3332 12.5507 12.982 13.3986 12.3569 14.0237C11.7318 14.6488 10.884 15 9.9999 15C9.11584 15 8.268 14.6488 7.64288 14.0237C7.01776 13.3986 6.66657 12.5507 6.66657 11.6667Z" fill="#95989C"/>
</g>
</svg>
