<svg width="20" height="11" viewBox="0 0 20 11" fill="none" xmlns="http://www.w3.org/2000/svg">
<path d="M7.78583 10.6516L6.17583 10.22L6.83166 7.7708C5.84998 7.40871 4.93761 6.88108 4.13416 6.2108L2.34 8.0058L1.16166 6.82747L2.95583 5.03247C1.94256 3.81893 1.26174 2.3631 0.979996 0.807467L2.62 0.508301C2.93454 2.23648 3.84556 3.79947 5.19427 4.92486C6.54298 6.05025 8.24385 6.66667 10.0004 6.66667C11.757 6.66667 13.4578 6.05025 14.8066 4.92486C16.1553 3.79947 17.0663 2.23648 17.3808 0.508301L19.0208 0.806634C18.7389 2.36263 18.0578 3.81877 17.0442 5.03247L18.8392 6.82747L17.6608 8.0058L15.8658 6.2108C15.0624 6.88106 14.15 7.4087 13.1683 7.7708L13.825 10.2208L12.215 10.6516L11.5583 8.20163C10.527 8.37843 9.47303 8.37843 8.44166 8.20163L7.78583 10.6516Z" fill="#95989C"/>
</svg>
